<?xml version="1.0" encoding="UTF-8" standalone="no"?>
<svg
   xmlns:dc="http://purl.org/dc/elements/1.1/"
   xmlns:cc="http://creativecommons.org/ns#"
   xmlns:rdf="http://www.w3.org/1999/02/22-rdf-syntax-ns#"
   xmlns:svg="http://www.w3.org/2000/svg"
   xmlns="http://www.w3.org/2000/svg"
   xmlns:sodipodi="http://sodipodi.sourceforge.net/DTD/sodipodi-0.dtd"
   xmlns:inkscape="http://www.inkscape.org/namespaces/inkscape"
   viewBox="0 0 512 512"
   version="1.1"
   id="svg835"
   sodipodi:docname="rock-hand-scissors.svg"
   inkscape:version="1.0.2 (e86c8708, 2021-01-15)">
  <metadata
     id="metadata841">
    <rdf:RDF>
      <cc:Work
         rdf:about="">
        <dc:format>image/svg+xml</dc:format>
        <dc:type
           rdf:resource="http://purl.org/dc/dcmitype/StillImage" />
      </cc:Work>
    </rdf:RDF>
  </metadata>
  <defs
     id="defs839" />
  <sodipodi:namedview
     pagecolor="#ffffff"
     bordercolor="#666666"
     borderopacity="1"
     objecttolerance="10"
     gridtolerance="10"
     guidetolerance="10"
     inkscape:pageopacity="0"
     inkscape:pageshadow="2"
     inkscape:window-width="1121"
     inkscape:window-height="761"
     id="namedview837"
     showgrid="false"
     inkscape:zoom="1.0800781"
     inkscape:cx="256"
     inkscape:cy="256"
     inkscape:window-x="0"
     inkscape:window-y="25"
     inkscape:window-maximized="0"
     inkscape:current-layer="svg835" />
  <!--! Font Awesome Pro 6.1.2 by @fontawesome - https://fontawesome.com License - https://fontawesome.com/license (Commercial License) Copyright 2022 Fonticons, Inc. -->
  <path
     d="M 511.9998,68.750004 V 180.46875 c 0,52.12648 -42.4048,94.53126 -94.53126,94.53126 h -20.25975 c -28.69239,0 -55.69825,-11.17188 -75.94728,-31.46387 l -60.74707,-60.74707 c -4.2292,-4.20019 -6.32715,-9.73242 -6.32715,-15.21094 0,-11.44043 9.21143,-21.48438 21.48438,-21.48438 5.49463,0 10.99463,2.09796 15.18944,6.29493 l 32.07618,32.05469 V 34.375002 c 0,-9.490727 7.69678,-17.187501 17.1875,-17.187501 9.49073,0 17.1875,7.696774 17.1875,17.187501 l 0.0392,94.531248 c 0.0145,4.72657 3.82805,8.59375 8.5546,8.59375 4.72657,0 8.63136,-3.84785 8.63136,-8.59375 L 374.49985,17.1875 C 374.49985,7.6967743 382.19663,0 391.68735,0 c 9.49073,0 17.1875,7.6967743 17.1875,17.1875 l 0.0261,111.71875 c 0,4.7459 3.81938,8.59375 8.56689,8.59375 4.74751,0 8.59461,-3.86718 8.59461,-8.59375 V 34.375002 c 0,-9.490727 7.69678,-17.187501 17.1875,-17.187501 9.49074,0 17.1875,7.696774 17.1875,17.187501 l 0.0392,94.531248 c 0,4.7459 3.80865,8.59375 8.55615,8.59375 4.74752,0 8.5922,-3.86718 8.5922,-8.59375 V 68.750004 c 0,-9.490729 7.69677,-17.1875 17.1875,-17.1875 9.49073,0 17.1875,7.680667 17.1875,17.1875 z"
     id="path833"
     style="stroke-width:0.53711" />
  <path
     d="m 223.4375,77.343757 v 64.667973 c 0,26.74804 -13.64259,50.32714 -34.375,64.23827 V 275 H 51.562501 V 206.25 L 22.99365,185.47999 C 8.5937507,174.99023 0,158.07129 0,140.29298 V 103.12501 C 0,95.293954 3.5583534,87.881838 9.1845697,82.994144 L 25.781251,70.092777 v 24.438482 c 0,4.726567 3.845701,8.593751 8.59375,8.593751 4.748049,0 8.59375,-3.847864 8.59375,-8.593751 V 25.781252 C 42.968751,11.537109 54.516606,0 68.750001,0 82.381837,0 93.43555,10.618652 94.354005,24.024904 98.935553,19.819335 105.00488,17.1875 111.71875,17.1875 125.95214,17.1875 137.5,28.72461 137.5,42.968752 v 2.970754 c 4.61914,-6.961477 12.51464,-11.564504 21.48437,-11.564504 12.60596,0 23.06347,9.061035 25.30322,21.022462 3.91553,-2.384766 8.48096,-3.834962 13.36866,-3.834962 14.23339,0 25.78125,11.547852 25.78125,25.781255 z"
     id="path843"
     style="stroke-width:0.53711" />
  <path
     d="m 393.5,374.5 v 59.67285 C 393.5,477.30273 358.80274,512 316.15625,512 H 273.1875 c -14.24414,0 -25.78125,-11.53712 -25.78125,-25.77588 0,-4.91562 1.44858,-9.45849 3.83442,-13.36865 -11.94478,-2.69629 -21.02192,-12.68652 -21.02192,-25.30859 0,-8.98048 4.5982,-16.86525 11.5586,-21.00098 H 139.98437 c -11.86474,0 -21.48437,-9.61427 -21.48437,-21.47901 0,-11.86474 9.61963,-21.00097 21.48437,-21.00097 H 263.25098 L 150.72657,347.75195 c -9.16846,-2.90039 -15.04444,-11.333 -15.04444,-20.51757 0,-2.13394 0.3205,-4.3044 0.99418,-6.45069 2.87354,-9.16846 11.32227,-15.06055 20.44239,-15.06055 2.14843,0 4.33501,0.32684 6.49365,1.01461 l 149.96093,46.84668 c 0.86422,0.29057 1.72359,0.398 2.58297,0.398 3.65879,0 7.04687,-2.34987 8.20165,-6.03174 0.26738,-0.85294 0.39456,-1.71607 0.39456,-2.56577 0,-3.65611 -2.35682,-7.04688 -6.03173,-8.19092 l -38.96191,-12.17628 7.6753,-9.5874 c 4.87447,-6.0978 12.28658,-9.65883 20.12838,-9.65883 h 25.78125 c 5.58056,0 11,1.80414 15.46875,5.15194 l 20.63038,15.46339 c 13.53515,10.15674 21.76903,25.76513 23.39111,42.45312 0.39746,1.84658 0.66601,3.72647 0.66601,5.66006 z"
     id="path1443"
     style="stroke-width:0.53711" />
</svg>
