<?xml version="1.0" encoding="UTF-8" standalone="no"?>
<svg
   xmlns:dc="http://purl.org/dc/elements/1.1/"
   xmlns:cc="http://creativecommons.org/ns#"
   xmlns:rdf="http://www.w3.org/1999/02/22-rdf-syntax-ns#"
   xmlns:svg="http://www.w3.org/2000/svg"
   xmlns="http://www.w3.org/2000/svg"
   xmlns:sodipodi="http://sodipodi.sourceforge.net/DTD/sodipodi-0.dtd"
   xmlns:inkscape="http://www.inkscape.org/namespaces/inkscape"
   viewBox="0 0 512 512"
   version="1.1"
   id="svg835"
   sodipodi:docname="rock-hand-scissors-lizard-spock.svg"
   inkscape:version="1.0.2 (e86c8708, 2021-01-15)">
  <metadata
     id="metadata841">
    <rdf:RDF>
      <cc:Work
         rdf:about="">
        <dc:format>image/svg+xml</dc:format>
        <dc:type
           rdf:resource="http://purl.org/dc/dcmitype/StillImage" />
        <dc:title></dc:title>
      </cc:Work>
    </rdf:RDF>
  </metadata>
  <defs
     id="defs839" />
  <sodipodi:namedview
     pagecolor="#ffffff"
     bordercolor="#666666"
     borderopacity="1"
     objecttolerance="10"
     gridtolerance="10"
     guidetolerance="10"
     inkscape:pageopacity="0"
     inkscape:pageshadow="2"
     inkscape:window-width="1121"
     inkscape:window-height="761"
     id="namedview837"
     showgrid="false"
     inkscape:zoom="1.0800781"
     inkscape:cx="256"
     inkscape:cy="256"
     inkscape:window-x="0"
     inkscape:window-y="25"
     inkscape:window-maximized="0"
     inkscape:current-layer="svg835" />
  <!--! Font Awesome Pro 6.1.2 by @fontawesome - https://fontawesome.com License - https://fontawesome.com/license (Commercial License) Copyright 2022 Fonticons, Inc. -->
  <path
     d="M 447.31478,50.000001 V 131.25 c 0,37.91016 -30.83985,68.75 -68.75,68.75 h -14.73437 c -20.86719,0 -40.50781,-8.125 -55.23438,-22.88281 L 264.41634,132.9375 c -3.07578,-3.05468 -4.60156,-7.07812 -4.60156,-11.0625 0,-8.32031 6.69922,-15.625 15.625,-15.625 3.9961,0 7.9961,1.52579 11.04687,4.57813 l 23.32813,23.3125 V 25.000001 c 0,-6.902347 5.59766,-12.500001 12.5,-12.500001 6.90235,0 12.5,5.597654 12.5,12.500001 l 0.0285,68.750001 c 0.0105,3.4375 2.78403,6.249992 6.22152,6.249992 3.43751,0 6.27736,-2.798432 6.27736,-6.249992 L 347.31486,12.5 c 0,-6.902346 5.59766,-12.5 12.5,-12.5 6.90235,0 12.5,5.597654 12.5,12.5 l 0.019,81.250002 c 0,3.45156 2.77773,6.249992 6.23047,6.249992 3.45273,0 6.25062,-2.812492 6.25062,-6.249992 V 25.000001 c 0,-6.902347 5.59766,-12.500001 12.5,-12.500001 6.90236,0 12.5,5.597654 12.5,12.500001 l 0.0285,68.750001 c 0,3.45156 2.76993,6.249992 6.22265,6.249992 3.45275,0 6.24888,-2.812492 6.24888,-6.249992 V 50.000001 c 0,-6.902348 5.59765,-12.499999 12.5,-12.499999 6.90235,0 12.5,5.585939 12.5,12.499999 z"
     id="path833"
     style="stroke-width:0.390625" />
  <path
     d="m 229.57052,56.250005 v 47.031245 c 0,19.45312 -9.92188,36.60155 -25,46.71874 v 50 h -99.99999 v -50 L 83.79318,134.89453 C 73.320525,127.26561 67.070525,114.96093 67.070525,102.03125 V 75.000007 c 0,-5.695313 2.587893,-11.085943 6.679687,-14.64063 l 12.070314,-9.382812 v 17.773442 c 0,3.437503 2.796873,6.25 6.25,6.25 3.453126,0 6.25,-2.798446 6.25,-6.25 V 18.750001 C 98.320526,8.3906241 106.71897,0 117.07053,0 c 9.91406,0 17.95312,7.7226562 18.62109,17.472657 3.33203,-3.058595 7.74609,-4.972657 12.6289,-4.972657 10.35156,0 18.75,8.390625 18.75,18.750001 v 2.160549 c 3.35937,-5.062893 9.10156,-8.410549 15.625,-8.410549 9.16797,0 16.77343,6.589844 18.40234,15.289064 2.84766,-1.734376 6.16797,-2.789064 9.72266,-2.789064 10.35156,0 18.75,8.398438 18.75,18.750004 z"
     id="path843"
     style="stroke-width:0.390625" />
  <path
     d="m 512,284.00668 v 43.39844 c 0,31.36719 -25.23437,56.60156 -56.25,56.60156 H 424.5 c -10.35937,0 -18.75,-8.39063 -18.75,-18.74609 0,-3.575 1.05351,-6.8789 2.78867,-9.72265 C 399.85156,353.577 393.25,346.31138 393.25,337.13169 c 0,-6.53126 3.34415,-12.26564 8.40625,-15.27344 H 327.625 c -8.62891,0 -15.625,-6.9922 -15.625,-15.6211 0,-8.6289 6.99609,-15.27343 15.625,-15.27343 h 89.64844 l -81.83593,-26.41016 c -6.66798,-2.10938 -10.94142,-8.24218 -10.94142,-14.92187 0,-1.55196 0.2331,-3.13047 0.72304,-4.69141 2.08985,-6.66797 8.23438,-10.95313 14.8672,-10.95313 1.56249,0 3.15273,0.2377 4.72265,0.7379 l 109.0625,34.07031 c 0.62852,0.21132 1.25352,0.28946 1.87852,0.28946 2.66094,0 5.125,-1.709 5.96484,-4.38672 0.19445,-0.62032 0.28695,-1.24806 0.28695,-1.86602 0,-2.65899 -1.71405,-5.125 -4.38671,-5.95703 l -28.33594,-8.85548 5.58204,-6.97265 c 3.54507,-4.43477 8.93569,-7.02461 14.63882,-7.02461 h 18.75 c 4.05859,0 8,1.31211 11.25,3.74687 l 15.00391,11.2461 c 9.84375,7.38672 15.83202,18.73828 17.01172,30.875 0.28906,1.34296 0.48437,2.71016 0.48437,4.1164 z"
     id="path1443"
     style="stroke-width:0.390625" />
  <path
     d="m 406,465.55456 v 40.19542 C 406,509.20155 403.20156,512 399.74999,512 h -50.00014 c -3.45157,0 -6.25002,-2.79845 -6.25002,-6.25002 v -6.25001 L 310.16771,474.4999 h -67.01972 c -6.43361,0 -12.28128,-5.25002 -12.48441,-11.67972 -0.10547,-14.17973 11.25785,-25.82039 24.98445,-25.82039 h 40.97667 c 5.37892,0 10.15628,-3.4418 11.85941,-8.5469 l 4.16798,-12.50003 c 3.07423,-8.09377 -2.98048,-16.45317 -11.49613,-16.45317 h -70.508 c -13.73051,0 -25.08953,-11.64066 -24.63476,-25.82039 0.20598,-6.4297 6.05267,-11.67972 12.13472,-11.67972 h 105.9378 c 10.25784,0 19.85943,5.03127 25.69929,13.46488 l 50.31263,72.30489 C 404.04687,453.32796 406,459.53892 406,465.55456 Z"
     id="path2063"
     style="stroke-width:0.390626" />
  <path
     d="m 199.91357,272.83085 c 0,-3.51523 -2.38867,-12.72653 -12.37497,-12.72653 -5.5078,0 -10.55466,3.64218 -12.0781,9.2031 l -13.42184,48.86706 c -0.65703,2.40625 -2.84179,4.07421 -5.33592,4.07421 -3.11757,0 -5.53124,-2.54609 -5.53124,-5.51952 0,-0.38453 0.0404,-0.77617 0.12488,-1.1703 l 13.94919,-65.07796 c 0.20441,-0.9539 0.30386,-1.91835 0.30386,-2.87577 0,-5.42577 -3.7871,-12.83591 -12.38278,-12.83591 -5.77733,0 -10.98434,4.0078 -12.24215,9.87888 l -14.75387,68.82795 c -1.09648,5.11717 -5.61718,8.77341 -10.84763,8.77341 -5.09374,0 -9.53123,-3.46522 -10.7656,-8.40622 L 84.201971,232.39814 C 82.72635,226.9716 77.60918,222.5961 71.78888,222.5961 c -10.43357,0 -12.41403,10.04294 -12.41403,12.49216 0,1.00351 0.12156,2.02343 0.37566,3.04139 l 19.74605,78.98417 c 0.0909,0.36332 0.13402,0.725 0.13402,1.07969 0,2.36366 -1.91836,4.40233 -4.41405,4.40233 -1.9125,0 -3.60702,-1.23203 -4.1953,-3.05156 L 52.76549,263.18244 c -1.75781,-5.78123 -6.79686,-9.3281 -12.26559,-9.3281 -6.12499,0 -12.35544,5.01171 -12.35544,12.48824 0,1.27852 0.19762,2.5789 0.61328,3.86093 l 27.31634,84.2576 c 0.11339,0.34957 0.16558,0.68984 0.16558,1.01484 0,1.76601 -1.53906,3.09179 -3.17147,3.09179 -0.75313,0 -1.52578,-0.28199 -2.17695,-0.93281 L 27.29681,334.04163 C 24.04056,330.78539 19.62886,329.0143 15.26168,329.0143 6.0585803,329.0143 0,336.70569 0,344.46348 c 0,3.99608 1.52578,7.99607 4.5781103,11.04685 L 52.42955,403.36177 c 12.3281,12.32028 29.00774,19.23432 46.429575,19.23432 h 19.914025 c 9.17966,0 42.34364,-5.69139 51.75768,-40.23427 l 28.89055,-105.93723 c 0.33594,-1.17187 0.49219,-2.38281 0.49219,-3.59374 z"
     id="path2654"
     style="stroke-width:0.390624" />
</svg>
