<?xml version="1.0" encoding="UTF-8" standalone="no"?>
<svg
   xmlns:dc="http://purl.org/dc/elements/1.1/"
   xmlns:cc="http://creativecommons.org/ns#"
   xmlns:rdf="http://www.w3.org/1999/02/22-rdf-syntax-ns#"
   xmlns:svg="http://www.w3.org/2000/svg"
   xmlns="http://www.w3.org/2000/svg"
   xmlns:sodipodi="http://sodipodi.sourceforge.net/DTD/sodipodi-0.dtd"
   xmlns:inkscape="http://www.inkscape.org/namespaces/inkscape"
   viewBox="0 0 375 630.9776"
   version="1.1"
   id="svg12"
   sodipodi:docname="robot-two-solid.svg"
   width="375"
   height="630.9776"
   inkscape:version="1.0.2 (e86c8708, 2021-01-15)">
  <metadata
     id="metadata18">
    <rdf:RDF>
      <cc:Work
         rdf:about="">
        <dc:format>image/svg+xml</dc:format>
        <dc:type
           rdf:resource="http://purl.org/dc/dcmitype/StillImage" />
        <dc:title></dc:title>
      </cc:Work>
    </rdf:RDF>
  </metadata>
  <defs
     id="defs16" />
  <sodipodi:namedview
     pagecolor="#ffffff"
     bordercolor="#666666"
     borderopacity="1"
     objecttolerance="10"
     gridtolerance="10"
     guidetolerance="10"
     inkscape:pageopacity="0"
     inkscape:pageshadow="2"
     inkscape:window-width="1166"
     inkscape:window-height="699"
     id="namedview14"
     showgrid="false"
     fit-margin-top="0"
     fit-margin-left="0"
     fit-margin-right="0"
     fit-margin-bottom="0"
     inkscape:zoom="0.7671875"
     inkscape:cx="187.5"
     inkscape:cy="320"
     inkscape:window-x="0"
     inkscape:window-y="25"
     inkscape:window-maximized="0"
     inkscape:current-layer="svg12" />
  <!--! Font Awesome Pro 6.1.2 by @fontawesome - https://fontawesome.com License - https://fontawesome.com/license (Commercial License) Copyright 2022 Fonticons, Inc. -->
  <path
     d="M 5.49316,136.75781 C 1.97754,140.27344 0,145.01953 0,150 v 75 c 0,4.98047 1.97754,9.73828 5.49316,13.25391 C 9.00879,241.76953 13.76953,243.75 18.75,243.75 H 37.5 V 131.25 H 18.75 c -4.98047,0 -9.73828,1.99219 -13.25684,5.50781 z M 271.875,56.25 H 206.25 V 18.75 C 206.25,8.4257813 197.82422,0 187.5,0 177.17578,0 168.75,8.4257813 168.75,18.75 v 37.5 H 103.125 C 77.22656,56.25 56.25,77.226562 56.25,103.125 V 262.5 c 0,20.73047 16.76953,37.5 37.5,37.5 h 187.5 c 20.73047,0 37.5,-16.76953 37.5,-37.5 V 103.125 C 318.75,77.226562 297.83203,56.25 271.875,56.25 Z M 150,243.75 H 112.5 V 225 H 150 Z m -18.75,-70.3125 c -12.94922,0 -23.4375,-10.48828 -23.4375,-23.4375 0,-12.94922 10.48828,-23.4375 23.4375,-23.4375 12.94922,0 23.4375,10.48828 23.4375,23.4375 0,12.94922 -10.48828,23.4375 -23.4375,23.4375 z m 75,70.3125 h -37.5 V 225 h 37.5 z m 56.25,0 H 225 V 225 h 37.5 z m -18.75,-70.3125 c -12.96094,0 -23.4375,-10.47656 -23.4375,-23.4375 0,-12.96094 10.48828,-23.4375 23.4375,-23.4375 12.94922,0 23.4375,10.48828 23.4375,23.4375 0,12.94922 -10.48828,23.4375 -23.4375,23.4375 z M 369.49219,136.75781 C 365.97656,133.24219 361.23047,131.25 356.25,131.25 H 337.5 v 112.5 h 18.75 c 4.98047,0 9.73828,-1.97754 13.25391,-5.49316 C 373.01953,234.74121 375,229.98047 375,225 v -75 c 0,-4.98047 -1.99219,-9.72656 -5.50781,-13.24219 z"
     id="path10"
     style="stroke-width:0.585938" />
  <path
     d="M 5.49316,467.73541 C 1.97754,471.25104 0,475.99713 0,480.9776 v 75 c 0,4.98047 1.97754,9.73828 5.49316,13.25391 3.51563,3.51562 8.27637,5.49609 13.25684,5.49609 H 37.5 v -112.5 H 18.75 c -4.98047,0 -9.73828,1.99219 -13.25684,5.50781 z M 271.875,387.2276 H 206.25 v -37.5 c 0,-10.32422 -8.42578,-18.75 -18.75,-18.75 -10.32422,0 -18.75,8.42578 -18.75,18.75 v 37.5 h -65.625 c -25.89844,0 -46.875,20.97656 -46.875,46.875 v 159.375 c 0,20.73047 16.76953,37.5 37.5,37.5 h 187.5 c 20.73047,0 37.5,-16.76953 37.5,-37.5 v -159.375 c 0,-25.89844 -20.91797,-46.875 -46.875,-46.875 z M 150,574.7276 h -37.5 v -18.75 H 150 Z m -18.75,-70.3125 c -12.94922,0 -23.4375,-10.48828 -23.4375,-23.4375 0,-12.94922 10.48828,-23.4375 23.4375,-23.4375 12.94922,0 23.4375,10.48828 23.4375,23.4375 0,12.94922 -10.48828,23.4375 -23.4375,23.4375 z m 75,70.3125 h -37.5 v -18.75 h 37.5 z m 56.25,0 H 225 v -18.75 h 37.5 z m -18.75,-70.3125 c -12.96094,0 -23.4375,-10.47656 -23.4375,-23.4375 0,-12.96094 10.48828,-23.4375 23.4375,-23.4375 12.94922,0 23.4375,10.48828 23.4375,23.4375 0,12.94922 -10.48828,23.4375 -23.4375,23.4375 z M 369.49219,467.73541 C 365.97656,464.21979 361.23047,462.2276 356.25,462.2276 H 337.5 v 112.5 h 18.75 c 4.98047,0 9.73828,-1.97754 13.25391,-5.49316 C 373.01953,565.71881 375,560.95807 375,555.9776 v -75 c 0,-4.98047 -1.99219,-9.72656 -5.50781,-13.24219 z"
     id="path10-9"
     style="stroke-width:0.585938" />
</svg>
